<?xml version="1.0" standalone="no"?>
<!DOCTYPE svg PUBLIC "-//W3C//DTD SVG 20010904//EN"
 "http://www.w3.org/TR/2001/REC-SVG-20010904/DTD/svg10.dtd">
<svg version="1.0" xmlns="http://www.w3.org/2000/svg"
 width="1080.000000pt" height="1080.000000pt" viewBox="0 0 1080.000000 1080.000000"
 preserveAspectRatio="xMidYMid meet">

<g transform="translate(0.000000,1080.000000) scale(0.100000,-0.100000)"
fill="#4c6fbf"  stroke="none">
<path d="M1079 8316 c-73 -26 -127 -77 -159 -149 l-21 -47 -168 0 c-190 0
-233 -9 -299 -66 -22 -19 -50 -54 -62 -79 -17 -36 -109 -351 -110 -377 0 -5
27 -8 60 -8 66 0 69 -4 51 -67 l-9 -33 177 -2 178 -3 -86 -297 c-69 -235 -89
-293 -97 -280 -10 15 -16 16 -60 4 -64 -17 -474 -217 -474 -231 0 -6 48 13
108 43 203 101 370 176 394 176 22 -1 22 -2 -10 -31 -40 -36 -36 -45 13 -29
37 12 85 7 85 -9 0 -11 -58 -61 -71 -61 -5 0 -9 -4 -9 -10 0 -5 12 -7 28 -4
15 2 34 0 42 -6 13 -9 12 -13 -7 -29 -19 -16 -118 -61 -186 -84 -23 -8 -22
-24 3 -32 40 -13 19 -25 -42 -25 -87 0 -125 -13 -194 -64 -34 -26 -63 -41 -69
-36 -5 4 -27 13 -47 18 l-38 10 0 -159 0 -159 26 11 c37 13 40 6 18 -43 -26
-57 -26 -201 -1 -277 l18 -54 -33 -27 c-66 -56 -20 -38 69 27 l92 66 -25 32
c-26 35 -31 71 -11 78 6 3 39 2 73 0 69 -6 107 8 165 64 l37 35 33 -17 c18
-10 56 -21 84 -24 l50 -6 -2 -74 c-4 -121 -53 -236 -114 -261 -39 -16 -107 1
-166 42 -25 16 -48 26 -53 22 -4 -5 -36 -43 -70 -84 -53 -65 -60 -79 -56 -107
4 -25 1 -33 -10 -33 -21 0 -74 28 -102 53 l-22 20 0 -429 c0 -245 4 -423 9
-414 18 31 33 135 27 183 -8 57 0 67 51 67 29 0 33 -4 37 -32 30 -192 39 -243
56 -306 11 -40 27 -84 36 -97 30 -46 98 -52 207 -18 27 8 51 13 54 10 3 -3
-101 -324 -231 -714 -130 -389 -236 -713 -236 -719 0 -7 9 -14 21 -17 12 -3
18 -10 14 -16 -4 -7 15 -11 57 -11 l63 0 152 455 c109 328 147 455 137 455 -8
0 -14 3 -14 7 0 5 47 150 106 325 l105 316 62 25 c59 24 127 42 127 35 0 -2
-117 -354 -260 -783 -143 -429 -260 -786 -260 -792 0 -7 9 -13 20 -13 11 0 23
-7 26 -15 5 -11 22 -15 63 -15 l56 0 207 623 c246 743 223 667 204 667 -9 0
-16 3 -16 7 0 27 145 440 156 446 10 6 14 17 10 31 -3 14 14 82 44 172 28 81
50 154 50 162 0 10 -16 12 -67 10 l-66 -3 -42 -124 c-23 -69 -45 -126 -51
-128 -5 -1 -44 -9 -86 -16 -56 -10 -78 -10 -78 -2 0 6 18 65 40 130 22 65 40
125 40 132 0 11 -16 13 -67 11 l-68 -3 -52 -154 c-28 -85 -58 -158 -65 -162
-10 -5 -144 -37 -182 -43 -6 0 -17 66 -26 147 -14 130 -14 149 -1 157 12 7 11
16 -8 61 -35 85 -88 175 -143 240 l-50 60 26 82 c14 45 37 95 50 110 l23 29
40 -25 c52 -33 118 -50 159 -42 78 14 144 149 144 294 0 69 2 77 22 86 53 24
48 113 -10 174 -30 32 -46 40 -87 45 -64 9 -135 27 -135 35 0 3 22 78 48 166
l47 159 52 30 c58 33 75 62 48 82 -16 12 -15 14 1 39 18 27 18 28 -10 50 l-27
22 89 304 88 304 2190 3 2190 2 11 -30 c6 -16 7 -30 2 -30 -19 0 -8 -40 26
-90 20 -30 33 -60 30 -69 -6 -21 90 -163 203 -300 147 -176 335 -342 532 -467
50 -31 90 -61 90 -66 0 -5 20 -138 44 -296 l45 -287 -253 -865 -253 -865
-1209 -3 -1210 -2 -129 -473 c-70 -259 -130 -480 -133 -489 -4 -16 4 -18 72
-18 86 0 86 0 61 -82 l-14 -48 1116 0 1115 0 -7 -37 c-21 -111 -74 -196 -149
-236 l-41 -22 -1167 -3 -1166 -2 -6 62 c-4 35 -31 395 -61 802 -45 602 -53
750 -45 800 79 477 89 809 32 1064 -6 23 -8 42 -5 42 2 0 23 -11 46 -24 23
-14 78 -37 122 -51 109 -37 181 -33 249 14 68 47 171 147 272 263 81 92 86
101 75 124 -6 14 -11 27 -11 29 0 3 103 5 228 5 217 0 230 1 247 20 17 19 145
471 145 513 0 9 -9 26 -20 37 -19 19 -33 20 -258 20 -215 0 -240 -2 -254 -17
-9 -10 -32 -78 -51 -152 -36 -134 -36 -134 -94 -193 -60 -61 -75 -67 -107 -43
-39 30 -59 18 -195 -112 l-132 -126 -35 16 c-19 9 -34 22 -34 29 0 6 85 319
190 694 104 374 190 689 190 698 0 15 -81 16 -1066 14 l-1067 -3 -228 -815
c-126 -448 -229 -818 -229 -822 0 -5 207 -8 461 -8 l461 0 -6 -37 c-27 -172
-62 -637 -51 -673 4 -13 -96 -329 -274 -869 -155 -467 -281 -852 -281 -855 0
-3 8 -6 18 -6 10 0 23 -5 29 -11 5 -5 34 -9 64 -7 l54 3 213 640 c176 529 211
642 199 649 -12 8 -5 36 40 173 54 161 55 163 84 163 16 0 29 -4 29 -10 0 -5
-18 -91 -40 -191 -22 -100 -37 -185 -35 -189 3 -5 -4 -67 -14 -139 -17 -116
-38 -187 -176 -602 -86 -258 -154 -473 -151 -476 3 -4 42 -8 86 -11 44 -2 80
-7 80 -11 0 -3 -14 -96 -30 -206 -16 -110 -30 -203 -30 -207 0 -5 -306 -8
-680 -8 -447 0 -680 -3 -680 -10 0 -7 232 -10 675 -10 657 0 675 0 675 -19 0
-11 -11 -97 -25 -193 -14 -95 -26 -184 -28 -197 -2 -29 0 -30 208 -61 76 -12
141 -23 143 -25 2 -1 -2 -131 -8 -287 -9 -210 -16 -294 -27 -326 -24 -65 -17
-69 198 -98 274 -37 377 -35 366 7 -6 23 -20 23 158 -1 198 -27 305 -27 336 0
l24 20 -22 19 c-13 11 -71 46 -130 80 l-108 60 12 228 c6 125 12 242 12 259 1
30 4 32 49 39 50 7 217 59 241 74 11 7 12 34 2 162 -6 85 -14 178 -17 206 l-5
53 1129 0 c621 0 1150 3 1176 6 62 9 144 59 177 109 15 22 38 76 51 120 l25
80 375 3 375 2 127 468 c70 257 126 473 126 480 0 8 -20 12 -65 12 -36 0 -65
1 -65 3 0 1 9 33 19 70 15 50 17 69 8 72 -7 3 -138 6 -293 7 l-281 3 238 813
c130 446 240 824 243 838 4 15 9 25 10 23 2 -2 122 -771 266 -1709 144 -938
266 -1709 272 -1715 10 -10 8 12 -9 129 l-6 39 324 -6 c178 -4 387 -7 465 -7
l141 0 13 -90 c7 -50 17 -93 21 -96 5 -3 9 3 9 13 0 15 -286 1892 -303 1991
-2 12 -1 22 2 21 3 0 38 -37 76 -81 224 -258 571 -627 609 -648 22 -11 31 -12
48 -1 11 7 22 10 25 7 3 -2 -1 -69 -8 -148 -18 -210 -19 -202 13 -206 24 -3
38 10 113 105 106 132 185 249 185 272 0 9 -25 47 -56 84 -41 50 -53 71 -46
80 8 9 -68 113 -293 397 l-303 384 -207 596 c-114 327 -232 657 -261 732 -59
149 -62 163 -39 172 27 10 75 97 75 137 0 88 -104 361 -178 469 -49 69 -104
100 -181 100 -31 0 -70 -4 -88 -9 -30 -9 -33 -7 -67 46 -54 82 -50 97 42 177
139 120 182 218 133 301 -11 20 -21 49 -21 64 0 65 -76 109 -166 95 -27 -4
-56 -2 -73 6 l-28 11 73 252 c81 276 89 338 55 412 -22 48 -72 99 -126 128
l-40 22 -2725 2 c-2210 2 -2732 0 -2761 -11z m5483 -16 c92 -26 168 -123 170
-219 2 -75 -141 -564 -162 -555 -8 4 -51 20 -95 36 -44 16 -81 31 -83 33 -2 2
4 37 14 79 15 64 16 83 5 129 -15 70 -59 139 -109 172 -21 14 -48 38 -60 54
-12 16 -49 43 -83 60 l-62 31 -2584 0 c-2506 0 -2583 1 -2583 18 0 24 47 95
82 122 66 51 -99 49 2808 49 1835 1 2717 -2 2742 -9z m-5347 -345 c75 -36 78
-142 5 -180 -73 -38 -150 9 -150 93 0 47 51 99 98 101 8 1 29 -6 47 -14z m335
0 c70 -36 81 -106 25 -162 -32 -32 -40 -35 -77 -30 -22 3 -49 14 -60 24 -49
49 -38 136 22 165 43 22 53 22 90 3z m310 0 c70 -36 81 -106 25 -162 -32 -32
-40 -35 -77 -30 -22 3 -49 14 -60 24 -49 49 -38 136 22 165 43 22 53 22 90 3z
m4479 -510 c6 -25 19 -50 29 -56 17 -10 16 -16 -5 -102 -35 -138 -39 -214 -14
-255 12 -18 32 -38 46 -44 30 -14 30 -14 5 -99 -24 -80 -22 -79 -142 -49 -267
69 -584 260 -839 507 -31 30 -66 60 -78 66 -13 7 -32 27 -43 45 l-20 32 525 0
525 0 11 -45z m-3189 -248 c-19 -13 -254 -162 -521 -330 -427 -270 -490 -307
-525 -307 -61 0 -140 -27 -180 -62 l-35 -31 -122 119 c-67 66 -241 235 -386
377 l-263 257 1033 0 1034 0 -35 -23z m-1270 -756 c-1 -3 -9 -20 -18 -38 -13
-25 -138 -109 -605 -403 -324 -205 -590 -370 -593 -368 -3 4 409 1500 432
1566 4 13 785 -742 784 -757z m1318 741 c-43 -163 -373 -1339 -378 -1345 -7
-8 -337 144 -420 194 -31 19 -74 43 -98 53 l-41 19 24 28 c43 52 44 144 4 274
-21 68 -48 108 -89 134 l-27 16 506 322 c278 176 510 322 515 322 4 1 6 -7 4
-17z m3316 -263 c4 -22 4 -56 0 -75 -6 -34 -7 -34 -60 -34 -30 0 -54 3 -54 6
0 3 9 37 21 75 20 67 22 69 54 69 30 0 33 -3 39 -41z m-6044 -281 c0 -2 -20
-68 -43 -148 l-43 -145 -64 -3 c-35 -2 -74 -1 -85 2 -11 3 -43 31 -70 62 l-49
57 35 30 c58 50 106 67 192 67 61 0 79 3 84 16 3 8 1 20 -6 27 -16 16 -14 25
7 30 21 6 42 8 42 5z m5765 -306 c0 -15 -120 -421 -123 -417 -4 3 -81 490 -82
512 0 7 45 -10 103 -37 56 -27 102 -53 102 -58z m-2247 66 c7 -7 12 -21 12
-32 -1 -31 -126 -486 -137 -497 -5 -5 -103 -8 -236 -7 l-227 3 55 44 c76 61
99 100 92 156 -6 43 -6 44 61 109 37 35 64 67 61 71 -8 7 -160 -48 -205 -74
-19 -11 -34 -19 -34 -18 1 20 63 234 71 244 16 18 469 19 487 1z m-2151 -100
c-4 -24 -9 -101 -12 -173 -8 -171 -18 -194 -106 -246 -111 -64 -140 -108 -161
-244 -3 -20 -12 -20 -437 -23 -239 -1 -431 1 -427 5 13 13 1130 721 1140 722
4 1 6 -18 3 -41z m4536 -190 c47 -123 89 -231 93 -241 6 -18 -2 -19 -164 -15
-94 1 -173 5 -176 8 -4 4 108 403 129 458 14 38 37 -3 118 -210z m-3144 -103
c40 -20 111 -102 143 -165 l27 -53 -21 -31 c-44 -62 -304 -314 -345 -335 -81
-40 -177 -25 -332 53 -40 21 -75 35 -78 33 -2 -3 6 -54 18 -113 16 -83 23
-158 26 -309 4 -187 2 -216 -31 -458 -19 -141 -37 -261 -40 -266 -3 -5 -70
-22 -148 -37 -125 -25 -166 -29 -323 -29 -192 0 -254 9 -426 61 l-86 26 27
132 c16 72 35 159 43 193 16 69 13 73 -44 73 -16 0 -47 7 -69 16 -33 13 -42
23 -51 56 -25 95 47 843 87 895 12 16 13 12 14 -35 0 -95 69 -239 153 -320 34
-33 34 -34 30 -108 -5 -77 4 -104 35 -104 25 0 282 103 282 113 0 5 -6 7 -12
4 -160 -65 -272 -106 -279 -101 -5 3 -9 38 -9 79 l0 73 39 -5 40 -5 35 73 c72
152 221 285 430 385 93 44 150 95 143 130 -2 13 -3 24 -2 24 1 0 94 -43 206
-94 l204 -95 130 130 c71 71 136 129 143 129 7 0 26 -7 41 -15z m4195 -769
c119 -340 219 -623 223 -629 4 -7 139 -179 300 -384 161 -205 293 -377 293
-382 0 -19 -212 -191 -235 -191 -17 0 -271 263 -510 528 -241 267 -258 296
-351 582 -37 113 -68 211 -70 218 -2 6 -7 12 -12 12 -5 0 -12 -152 -16 -337
-8 -397 -23 -911 -32 -1105 l-6 -138 -37 -10 c-20 -5 -75 -10 -122 -10 -133 0
-122 -29 -148 380 -27 426 -118 1735 -126 1811 l-6 56 93 6 c144 9 322 75 488
181 30 19 56 34 57 33 1 -1 99 -281 217 -621z m-943 586 c3 -4 20 -44 38 -88
29 -74 34 -100 46 -265 8 -101 15 -206 15 -233 l0 -49 -176 6 c-97 3 -178 8
-181 11 -7 7 -102 619 -98 626 5 8 349 -1 356 -8z m-6307 -199 c-9 -39 -24
-52 -24 -22 0 21 16 49 27 49 2 0 0 -12 -3 -27z m634 -415 c-3 -7 -22 -65 -43
-128 -20 -63 -42 -120 -49 -127 -14 -14 -96 -28 -96 -16 0 4 21 70 46 145 l46
138 50 0 c36 0 49 -4 46 -12z m309 0 c-2 -7 -24 -72 -48 -145 l-43 -132 -25
18 c-15 10 -34 20 -43 24 -15 5 -13 18 23 126 l41 121 50 0 c36 0 49 -4 45
-12z m5389 -38 l80 0 18 -252 c9 -139 20 -281 23 -315 l6 -63 -157 0 c-86 0
-156 3 -157 8 0 4 -22 144 -48 312 -26 168 -46 309 -43 314 3 5 48 6 101 2 53
-3 132 -6 177 -6z m-6154 -170 c8 -77 17 -143 20 -145 3 -3 72 10 154 29 241
56 372 79 411 71 45 -8 103 -62 82 -76 -8 -5 -24 -9 -36 -9 -27 0 -30 -12 -8
-30 14 -11 14 -16 1 -35 -8 -12 -16 -32 -18 -46 -4 -30 -42 -38 -69 -13 -18
16 -26 17 -82 5 -34 -7 -105 -33 -159 -57 -123 -57 -258 -103 -323 -110 -71
-8 -95 13 -123 108 -23 77 -65 320 -60 344 2 11 166 101 189 103 3 1 13 -62
21 -139z m6785 -277 c29 -87 56 -166 59 -175 6 -16 -1 -18 -60 -18 l-66 0 0
182 c0 100 3 179 6 175 4 -3 31 -77 61 -164z m-5569 53 c12 -4 22 -11 22 -14
0 -4 -24 -79 -53 -167 l-54 -160 -34 -5 -34 -5 -210 -627 c-166 -496 -213
-628 -227 -628 -13 0 35 154 253 808 148 444 271 813 274 821 5 11 8 11 23 -1
9 -9 27 -19 40 -22z m-674 -51 c11 -8 28 -15 39 -15 13 0 17 -5 13 -17 -3 -10
-25 -76 -49 -148 -43 -128 -44 -130 -75 -133 l-32 -3 -203 -617 c-187 -566
-205 -617 -227 -620 -16 -3 -21 0 -18 10 3 7 121 361 262 786 142 424 261 772
264 772 4 0 16 -7 26 -15z m-375 -384 l-104 -311 -35 0 -35 0 -143 -430 c-106
-317 -148 -430 -159 -430 -8 0 -13 6 -11 13 3 6 111 332 242 722 l236 710 53
21 c28 11 54 19 55 18 2 -1 -43 -142 -99 -313z m6115 127 c4 -29 14 -173 24
-320 l18 -268 -128 0 c-70 0 -128 2 -128 6 0 8 -90 597 -94 617 -4 16 8 17
149 17 l154 0 5 -52z m609 -15 c22 -46 36 -112 67 -317 22 -142 40 -260 40
-262 0 -2 -68 -4 -152 -4 l-151 0 6 197 c4 108 7 252 7 320 l0 123 78 0 78 0
27 -57z m-1073 -362 c0 -7 -228 -855 -246 -913 -5 -17 -85 -18 -1498 -18
l-1493 0 124 458 c68 251 126 463 128 470 3 9 311 12 1495 12 868 0 1490 -4
1490 -9z m-4640 -207 c-6 -38 -59 -214 -118 -391 -84 -253 -110 -323 -124
-323 -13 0 7 71 115 394 72 217 133 393 135 392 1 -2 -2 -34 -8 -72z m5144
-33 c3 -4 11 -102 17 -217 10 -174 15 -213 30 -235 l18 -27 -55 -71 -55 -71
-55 0 c-30 0 -54 3 -54 6 0 3 -20 136 -45 296 -25 160 -45 299 -45 310 0 16
10 18 119 18 66 0 122 -4 125 -9z m729 -320 c26 -172 47 -315 45 -317 -2 -2
-110 0 -240 3 l-237 6 20 26 c17 21 19 34 13 78 -5 42 -3 58 9 71 13 14 18 51
22 172 3 85 8 183 11 218 l6 63 151 -3 152 -3 48 -314z m-801 -327 c4 -3 -8
-28 -25 -56 -30 -47 -32 -49 -38 -27 -4 13 -7 39 -8 57 -1 30 1 32 32 32 19 0
36 -3 39 -6z m780 -10 l74 -7 47 -311 c26 -171 48 -314 47 -318 0 -10 -231
-10 -627 -1 l-299 6 -38 246 c-20 135 -37 249 -36 254 0 4 13 7 28 7 37 0 112
26 237 83 l100 45 196 1 c108 1 230 -2 271 -5z m-5544 -1013 c56 -4 105 -11
108 -14 3 -3 1 -104 -5 -225 -6 -122 -11 -237 -11 -256 0 -34 -2 -36 -54 -51
-35 -10 -83 -15 -138 -13 l-83 3 2 155 c1 85 5 214 8 287 l7 131 31 -4 c18 -3
78 -8 135 -13z m599 -88 c-4 -49 -10 -161 -13 -250 -4 -89 -10 -166 -13 -172
-13 -20 -129 -42 -203 -39 -65 3 -73 5 -73 23 0 11 4 131 9 267 l8 247 97 4
c53 1 118 4 145 5 l49 2 -6 -87z m-306 73 c2 -2 -1 -125 -7 -273 -11 -245 -23
-340 -43 -331 -4 2 -35 21 -70 43 l-64 39 7 156 c3 85 9 203 13 263 l6 107 77
0 c42 0 79 -2 81 -4z"/>
<path d="M1135 7938 c-31 -18 -44 -40 -45 -76 0 -66 74 -104 128 -66 51 35 46
111 -9 139 -33 18 -47 18 -74 3z"/>
<path d="M1470 7937 c-54 -28 -61 -99 -13 -137 31 -24 54 -25 92 -5 47 24 55
78 19 119 -28 31 -65 40 -98 23z"/>
<path d="M1780 7937 c-54 -28 -61 -99 -13 -137 31 -24 54 -25 92 -5 47 24 55
78 19 119 -28 31 -65 40 -98 23z"/>
<path d="M2410 5401 c-30 -10 -105 -39 -167 -65 l-112 -48 28 -51 c16 -29 35
-78 42 -109 7 -32 14 -58 17 -58 3 0 53 25 111 57 189 101 241 143 174 143
l-28 0 38 31 c20 17 37 34 37 39 0 15 -30 20 -57 9 l-28 -10 24 25 c26 27 23
56 -6 55 -10 0 -43 -8 -73 -18z"/>
<path d="M2175 5006 c-11 -8 -110 -67 -219 -132 -110 -65 -195 -119 -189 -121
8 -3 422 236 448 259 15 13 -18 8 -40 -6z"/>
<path d="M3546 3854 c-37 -65 -66 -124 -64 -133 3 -14 23 -16 148 -16 125 0
145 2 148 16 5 24 -129 249 -148 249 -10 0 -41 -44 -84 -116z m94 1 c0 -25 -4
-45 -10 -45 -5 0 -10 20 -10 45 0 25 5 45 10 45 6 0 10 -20 10 -45z m0 -95 c0
-11 -4 -20 -10 -20 -5 0 -10 9 -10 20 0 11 5 20 10 20 6 0 10 -9 10 -20z"/>
<path d="M4115 3872 c-54 -23 -128 -67 -145 -86 -19 -24 1 -19 43 10 101 68
198 91 245 58 l23 -16 -42 -21 c-59 -30 -71 -53 -40 -78 34 -28 86 -25 107 6
9 14 14 36 12 50 -5 24 -4 25 51 25 31 -1 85 -7 121 -15 36 -8 95 -14 131 -15
61 0 67 -2 88 -31 30 -41 113 -79 172 -79 56 0 122 22 261 89 117 57 188 72
239 51 l31 -13 -35 -14 c-45 -18 -55 -42 -27 -65 49 -39 145 -5 120 42 -13 25
-11 25 189 45 85 9 162 20 170 25 23 13 14 13 -203 -10 -170 -18 -192 -18
-213 -5 -33 22 -101 29 -151 16 -24 -7 -102 -40 -175 -73 -149 -70 -209 -81
-281 -54 -23 9 -55 29 -70 45 l-27 28 41 16 c44 17 52 40 19 57 -29 16 -68 4
-81 -25 -10 -22 -17 -25 -67 -25 -31 0 -91 7 -134 15 -43 8 -101 15 -127 15
-36 0 -59 7 -86 25 -44 30 -99 32 -159 7z m645 -32 c11 -7 9 -11 -13 -19 -46
-18 -62 -10 -35 17 14 14 28 15 48 2z m-460 -53 c0 -40 -38 -59 -84 -41 -24 9
-19 22 17 44 44 27 67 26 67 -3z m1145 -32 c0 -15 -8 -21 -33 -23 -18 -2 -40
2 -49 9 -13 12 -13 14 4 26 27 21 78 13 78 -12z"/>
<path d="M3535 3581 c-76 -34 -104 -116 -66 -193 22 -47 48 -67 99 -79 100
-22 199 78 171 173 -8 29 -5 36 23 65 39 41 29 57 -12 18 l-30 -29 -22 22
c-48 44 -101 52 -163 23z m142 -35 l28 -25 -45 -45 c-24 -25 -49 -46 -56 -46
-6 0 -19 11 -28 25 -16 24 -36 34 -36 18 1 -5 14 -23 30 -42 l29 -35 60 52
c59 51 59 51 65 26 4 -15 -1 -41 -12 -68 -16 -34 -28 -46 -62 -60 -86 -34
-160 18 -160 115 0 33 6 47 34 75 29 29 41 34 79 34 34 0 53 -6 74 -24z"/>
<path d="M4220 3499 c-44 -18 -61 -40 -55 -71 7 -28 6 -28 -42 -28 -26 0 -68
9 -92 20 -47 22 -67 19 -35 -4 30 -22 90 -37 152 -37 31 -1 91 -1 132 -2 41 0
105 3 141 7 52 7 77 5 115 -8 26 -9 50 -13 53 -10 9 9 -21 23 -78 36 -44 10
-69 9 -145 -4 -51 -9 -105 -14 -120 -11 l-27 6 35 32 c40 37 45 59 17 75 -23
12 -19 12 -51 -1z m46 -21 c11 -18 -56 -70 -73 -57 -21 18 -15 36 20 53 39 19
44 19 53 4z"/>
<path d="M5725 3490 c-3 -6 -21 -18 -38 -27 -25 -13 -77 -18 -247 -25 -242 -9
-218 -9 -285 -2 -41 5 -56 2 -84 -18 -52 -35 -51 -55 1 -24 48 28 129 39 93
12 -25 -18 -13 -46 20 -46 18 0 28 7 34 24 12 29 59 36 257 36 93 0 157 5 188
14 47 14 86 41 86 58 0 11 -17 10 -25 -2z m-525 -100 c0 -5 -7 -10 -16 -10 -8
0 -12 5 -9 10 3 6 10 10 16 10 5 0 9 -4 9 -10z"/>
<path d="M4867 3393 c-50 -27 -83 -26 -112 3 -9 9 -19 14 -22 10 -9 -9 18 -37
46 -47 31 -12 121 13 146 41 24 27 4 24 -58 -7z"/>
<path d="M4581 7253 c-16 -14 -37 -77 -86 -260 -36 -133 -65 -251 -65 -262 0
-11 12 -29 26 -40 25 -20 39 -21 245 -21 143 0 227 4 243 11 30 14 35 27 111
316 59 224 60 239 15 263 -11 6 -109 10 -243 10 -199 0 -227 -2 -246 -17z
m494 -26 c13 -21 10 -42 -51 -267 -40 -150 -72 -250 -82 -257 -11 -10 -76 -13
-238 -13 -189 0 -225 2 -238 16 -9 8 -16 21 -16 29 0 28 122 471 136 493 14
22 17 22 244 22 228 0 230 0 245 -23z"/>
<path d="M3703 7228 c-21 -23 -143 -454 -143 -505 0 -32 17 -63 35 -63 7 0 23
-13 35 -30 l21 -30 238 0 c199 0 241 2 251 15 13 15 140 476 140 507 0 9 -11
25 -25 36 -14 11 -25 27 -25 36 0 9 -9 25 -20 36 -19 19 -33 20 -253 20 -229
0 -234 0 -254 -22z m501 -20 c8 -12 13 -25 10 -30 -3 -4 -101 -8 -218 -8 -154
0 -217 -3 -228 -12 -10 -8 -39 -99 -73 -228 -72 -271 -69 -264 -95 -250 -12 7
-20 21 -20 37 0 47 122 487 138 501 12 9 76 12 243 12 222 0 228 -1 243 -22z"/>
<path d="M4345 6400 c-17 -19 -145 -470 -145 -511 0 -11 9 -27 20 -36 11 -10
32 -30 47 -45 l26 -28 228 0 c202 0 229 2 247 18 15 12 38 81 82 247 34 127
62 239 62 251 0 11 -15 43 -34 70 l-35 49 -240 3 c-229 2 -240 1 -258 -18z
m501 -17 c17 -17 7 -18 -210 -23 -214 -5 -228 -6 -239 -25 -7 -11 -40 -123
-74 -249 -34 -126 -65 -231 -67 -234 -9 -8 -36 19 -36 36 0 19 117 459 130
490 10 22 10 22 244 22 210 0 236 -2 252 -17z"/>
<path d="M3470 5565 c-176 -35 -331 -159 -407 -323 -146 -314 38 -697 377
-787 72 -19 207 -19 284 1 249 64 426 292 426 549 0 275 -194 509 -463 560
-93 18 -130 18 -217 0z m265 -222 c-33 -89 -290 -653 -297 -653 -4 0 -8 7 -8
15 0 30 284 655 298 655 9 0 12 -6 7 -17z m-345 -165 c0 -7 -41 -39 -91 -71
-51 -32 -88 -62 -83 -66 5 -4 46 -36 92 -71 77 -59 96 -80 71 -80 -16 0 -210
152 -207 162 4 10 198 137 211 138 4 0 7 -6 7 -12z m509 -83 c50 -37 91 -71
91 -75 0 -10 -222 -140 -239 -140 -28 0 -5 22 62 61 39 23 87 51 105 62 l33
20 -90 65 c-49 36 -88 69 -85 74 9 14 23 6 123 -67z"/>
<path d="M1315 5228 c-26 -67 -685 -2056 -685 -2065 0 -7 11 -13 24 -13 14 0
28 -4 31 -10 3 -5 32 -10 63 -10 l57 0 247 739 c237 713 245 740 223 743 -22
3 -20 10 76 303 54 165 99 306 99 313 0 8 -20 12 -65 12 -43 0 -67 -4 -70 -12z
m113 -20 c-3 -7 -49 -145 -102 -305 -96 -288 -98 -293 -125 -293 -27 0 -28 -1
-264 -720 -233 -704 -238 -720 -264 -720 -16 0 -23 5 -21 13 3 6 157 468 342
1025 l338 1012 50 0 c36 0 49 -4 46 -12z"/>
<path d="M8100 2948 c-110 -9 -121 -13 -190 -66 -79 -59 -75 -36 -75 -427 0
-339 1 -351 22 -390 24 -46 54 -75 103 -101 31 -17 60 -19 260 -19 l225 0 46
27 c82 48 169 186 169 269 0 14 9 34 21 45 59 54 63 137 11 264 -27 66 -31 89
-34 195 -5 175 -18 187 -213 204 -136 12 -196 12 -345 -1z m-191 -440 c2 -381
2 -379 71 -442 22 -19 54 -38 72 -41 18 -3 133 -5 256 -3 l223 3 -27 -22 c-15
-12 -47 -26 -70 -32 -56 -14 -388 -14 -439 0 -54 15 -120 82 -134 137 -8 29
-11 146 -9 371 3 307 4 330 22 350 11 12 22 21 26 21 5 0 9 -154 9 -342z m798
-89 c5 -55 -14 -119 -37 -119 -9 0 -19 258 -10 266 9 9 42 -93 47 -147z"/>
</g>
</svg>
