<?xml version="1.0" standalone="no"?>
<!DOCTYPE svg PUBLIC "-//W3C//DTD SVG 20010904//EN"
 "http://www.w3.org/TR/2001/REC-SVG-20010904/DTD/svg10.dtd">
<svg version="1.0" xmlns="http://www.w3.org/2000/svg"
 width="1080.000000pt" height="1080.000000pt" viewBox="0 0 1080.000000 1080.000000"
 preserveAspectRatio="xMidYMid meet">

<g transform="translate(0.000000,1080.000000) scale(0.100000,-0.100000)"
fill="#4c6fbf"  stroke="none">
<path d="M3290 10614 c-39 -16 -602 -571 -626 -616 -30 -56 -12 -123 46 -172
36 -30 94 -35 138 -12 15 8 99 87 187 175 88 89 163 161 167 161 5 0 8 -896 8
-1990 l0 -1991 -25 -59 c-34 -80 -70 -209 -85 -300 l-12 -75 -40 -2 c-51 -2
-110 -41 -134 -90 -13 -27 -19 -59 -19 -109 0 -61 5 -80 35 -140 27 -53 46
-76 82 -101 26 -17 51 -33 56 -35 5 -1 12 -40 15 -85 l6 -81 -40 -16 c-22 -9
-140 -36 -262 -61 -333 -66 -457 -106 -602 -195 -233 -142 -360 -305 -617
-794 -484 -920 -916 -2059 -1232 -3246 -66 -247 -186 -744 -186 -770 0 -20 30
-9 35 13 3 12 20 90 39 172 237 1034 593 2119 1000 3040 98 220 391 823 418
859 13 17 17 7 37 -105 66 -362 163 -775 232 -985 52 -160 117 -291 168 -337
88 -80 257 -95 572 -51 l46 6 5 -157 c4 -99 10 -161 17 -168 20 -20 28 8 20
70 -3 32 -7 104 -8 160 -2 112 -6 105 70 118 l36 7 -8 -64 c-4 -35 -15 -150
-24 -256 l-18 -192 -54 0 c-99 0 -153 -45 -153 -125 0 -78 51 -125 135 -125
29 0 45 -4 45 -12 0 -7 -7 -78 -15 -158 -21 -218 -43 -441 -65 -675 -11 -116
-22 -232 -25 -260 -3 -27 -14 -142 -25 -255 -11 -113 -27 -271 -35 -353 -8
-81 -15 -154 -15 -162 0 -13 21 -15 130 -15 l130 0 0 945 0 946 63 -3 62 -3 3
-942 2 -943 56 0 57 0 -7 98 c-12 175 -46 555 -61 682 -11 94 -15 245 -15 618
l0 492 265 0 c146 0 265 -1 266 -2 2 -11 38 -1652 39 -1755 0 -120 2 -133 18
-133 14 0 17 9 15 62 0 35 -4 214 -8 398 -4 184 -13 578 -19 875 -7 297 -11
543 -9 548 2 4 49 7 103 7 l99 0 5 -43 c3 -23 21 -404 41 -847 45 -1015 44
-1000 63 -1000 12 0 14 22 8 158 -4 86 -9 186 -11 222 -3 36 -7 128 -10 205
-3 77 -10 230 -15 340 -5 110 -12 254 -15 320 -3 66 -10 206 -15 310 -5 105
-10 223 -10 263 l0 72 1070 0 1070 0 0 -945 c0 -938 0 -945 20 -945 20 0 20 7
20 945 l0 946 63 -3 62 -3 3 -942 c2 -829 4 -943 17 -943 13 0 15 113 15 945
l0 945 38 0 c54 0 98 31 113 79 23 76 -14 151 -82 165 -18 3 -127 6 -244 6
l-213 0 -4 60 c-5 69 -27 106 -79 132 -31 17 -82 18 -616 18 l-583 0 0 245 0
245 575 0 c632 0 629 0 660 59 19 37 22 119 6 149 -6 12 -24 30 -38 40 -25 15
-74 17 -545 22 l-517 5 86 97 c86 98 87 98 192 140 l106 43 2480 3 2479 2
-177 -178 -177 -178 0 -48 c0 -88 51 -146 127 -146 24 0 56 6 71 14 15 8 157
145 315 303 303 305 318 323 309 400 -4 34 -32 66 -300 335 -162 163 -309 304
-327 313 -45 20 -93 19 -132 -5 -51 -31 -66 -62 -61 -126 l5 -56 174 -174 174
-174 -2320 0 -2320 1 -43 59 -43 59 51 49 c42 40 50 54 50 84 0 20 -7 41 -15
48 -13 11 -13 15 0 33 24 35 19 72 -16 101 -50 43 -164 36 -351 -20 -17 -5
-18 50 -18 1059 l0 1064 -23 34 c-42 64 -65 69 -312 69 l-220 0 -75 32 c-61
25 -93 32 -171 36 -112 5 -177 -7 -264 -49 l-60 -30 -60 31 c-72 36 -160 54
-226 45 l-49 -7 0 1888 0 1889 163 -161 c89 -89 173 -169 187 -178 14 -9 45
-16 72 -16 41 0 54 5 85 34 33 30 37 39 41 95 l5 63 -304 305 c-168 168 -318
311 -336 319 -40 17 -59 17 -103 -2z m692 -4965 c53 -74 161 -179 185 -179 14
0 15 12 9 88 -4 48 -10 105 -13 127 -5 40 -3 38 201 -165 113 -113 206 -208
206 -213 0 -4 -30 -63 -67 -132 l-68 -125 -17 40 c-14 32 -24 41 -59 50 -48
13 -97 7 -149 -20 -39 -20 -100 -83 -100 -103 0 -7 23 -74 52 -149 l51 -137
-24 -21 c-44 -37 -183 -100 -254 -115 -154 -32 -287 -12 -442 66 -117 58 -218
144 -279 236 -51 77 -93 203 -101 302 l-6 81 -43 21 c-84 40 -134 130 -134
241 0 70 19 112 63 138 61 38 127 21 187 -46 l32 -37 97 23 c195 46 398 132
496 208 l50 39 40 -76 c22 -42 61 -106 87 -142z m385 -547 c6 -4 37 -75 68
-157 32 -83 68 -178 81 -211 l23 -61 -115 -43 c-63 -23 -116 -41 -118 -39 -8
10 -156 408 -156 421 0 18 45 61 85 82 31 16 111 21 132 8z m-1259 -64 c3 -13
23 -57 44 -99 44 -89 136 -193 220 -250 59 -40 59 -41 41 -61 -23 -27 -74 -48
-113 -48 -93 0 -178 115 -255 343 l-34 102 37 17 c49 22 53 22 60 -4z m-105
-106 c65 -206 165 -358 254 -381 58 -16 125 2 175 47 l38 34 0 -469 0 -470
-250 -68 c-138 -37 -252 -66 -255 -64 -2 3 9 81 24 175 63 364 67 680 15 944
-8 41 -33 128 -55 194 -22 65 -37 122 -32 126 7 7 22 12 53 19 3 0 18 -39 33
-87z m-78 -95 c74 -224 97 -478 71 -773 -14 -159 -68 -509 -80 -521 -2 -2 -42
-15 -88 -28 l-85 -23 -15 87 c-13 70 -15 116 -8 245 10 182 10 183 120 246 33
19 60 40 60 46 0 6 -15 31 -33 55 -18 24 -50 73 -71 107 -34 56 -40 76 -51
170 -7 59 -16 148 -19 197 -8 117 -16 218 -21 276 l-4 46 82 15 82 14 12 -25
c7 -14 28 -75 48 -134z m-255 116 c0 -29 32 -418 41 -503 12 -115 27 -152 102
-262 l45 -66 -63 -40 c-85 -54 -96 -73 -104 -184 l-7 -93 -13 60 c-76 354
-154 672 -171 689 -5 4 -13 5 -18 2 -6 -4 -1 -39 14 -94 43 -150 111 -448 159
-692 25 -129 49 -251 53 -270 5 -24 14 -36 27 -37 11 -2 164 37 340 86 l320
88 12 -22 c23 -41 65 -179 84 -275 21 -98 37 -386 25 -433 -6 -24 -21 -31
-148 -72 -428 -138 -757 -207 -993 -209 -167 -1 -225 15 -283 78 -53 57 -82
115 -137 277 -79 230 -146 510 -231 954 l-43 230 66 115 c220 385 426 553 795
650 126 33 128 33 128 23z m2009 -330 c23 -22 56 -98 156 -362 69 -183 125
-334 123 -336 -2 -1 -16 -7 -33 -13 -16 -5 -113 -42 -214 -80 -167 -65 -182
-69 -176 -49 4 12 11 68 17 125 13 119 3 168 -42 214 -26 26 -35 28 -102 28
l-74 0 -52 138 c-29 75 -52 149 -52 164 0 49 37 74 200 137 85 33 170 60 187
60 22 1 42 -8 62 -26z m-1063 -227 c19 -60 42 -142 50 -183 l16 -74 -28 -41
c-16 -22 -47 -56 -71 -75 -24 -20 -43 -41 -43 -47 0 -7 15 -27 34 -45 l35 -33
-47 -70 -47 -69 -6 193 c-4 106 -7 294 -7 418 l-1 225 40 -45 c30 -35 47 -69
75 -154z m24 169 c68 -18 178 -22 268 -11 l62 8 0 -104 c0 -57 -5 -119 -11
-138 -6 -19 -18 -73 -27 -119 l-18 -84 -28 44 c-51 78 -192 262 -266 348 -40
47 -66 81 -56 78 9 -4 43 -14 76 -22z m557 -117 c0 -26 19 -89 47 -161 25 -65
46 -122 46 -126 0 -13 -113 -20 -128 -8 -17 13 -98 12 -152 -3 -23 -6 -45 -9
-48 -6 -11 12 20 146 47 203 32 65 69 105 121 127 58 25 67 22 67 -26z m-385
-241 c39 -54 69 -99 67 -101 -2 -2 -32 -18 -66 -36 -34 -18 -90 -57 -123 -87
l-61 -56 -24 23 -25 23 65 69 c78 82 78 86 35 253 -16 64 -30 119 -30 122 0 9
79 -94 162 -210z m339 -93 c18 -22 -4 -59 -61 -101 -136 -101 -151 -122 -123
-180 19 -42 59 -68 114 -77 57 -9 105 7 169 56 94 72 161 108 200 108 45 0 60
-15 60 -60 0 -75 -101 -177 -262 -265 -67 -36 -78 -48 -58 -60 13 -8 136 61
210 117 l52 39 -33 -62 c-43 -81 -105 -141 -184 -180 -51 -25 -63 -35 -54 -45
13 -16 86 13 142 57 43 34 44 32 18 -20 -47 -92 -124 -134 -391 -212 -74 -22
-189 -65 -256 -95 -67 -30 -126 -54 -133 -54 -7 0 -11 21 -11 59 0 90 -35 276
-75 394 -19 58 -35 108 -35 111 0 2 13 7 29 11 22 5 40 25 87 102 33 54 92
131 135 174 64 66 90 85 170 123 148 70 262 94 290 60z m96 -12 c19 -12 43
-78 43 -119 0 -53 -17 -107 -39 -127 -61 -55 -125 85 -82 178 11 23 22 49 25
59 6 18 32 22 53 9z m247 -11 c9 -10 22 -43 28 -74 14 -68 6 -83 -37 -67 -21
8 -41 7 -81 -5 -29 -8 -56 -20 -59 -25 -15 -25 -25 -5 -25 49 0 32 -7 77 -15
100 l-14 41 93 0 c78 0 96 -3 110 -19z m793 -5 c33 -29 26 -49 -26 -80 -30
-17 -33 -17 -44 -2 -11 15 -22 13 -116 -24 -57 -22 -105 -39 -107 -38 -1 2
-11 27 -22 56 -24 63 -25 62 95 91 114 28 185 27 220 -3z m-1148 -208 c5 -15
19 -36 30 -47 20 -20 20 -21 1 -31 -55 -30 -163 4 -176 55 -7 30 3 45 71 95
l50 37 7 -41 c3 -22 11 -53 17 -68z m1063 62 c5 -34 -13 -96 -35 -117 -8 -8
-149 -66 -313 -129 -376 -144 -434 -165 -433 -156 0 4 19 45 42 92 l42 85 330
127 c182 69 337 127 346 127 11 1 18 -9 21 -29z m98 15 c18 -22 -8 -74 -49
-98 l-31 -18 10 26 c6 15 10 41 10 60 0 43 35 60 60 30z m-38 -245 l58 -79
-76 -56 c-41 -31 -81 -58 -87 -60 -11 -4 -148 173 -149 192 0 4 33 21 74 36
40 16 77 32 83 38 21 21 43 5 97 -71z m-242 -96 c0 -12 -38 -50 -43 -43 -2 2
-13 30 -25 61 -19 52 -19 57 -4 60 17 4 71 -56 72 -78z m-74 -63 c24 -62 44
-117 44 -121 0 -12 -183 -81 -192 -72 -4 4 -27 60 -51 124 l-44 116 91 35 c50
20 95 35 100 33 5 -1 28 -53 52 -115z m-222 -106 l44 -115 -100 -110 c-98
-108 -100 -110 -144 -110 l-44 0 0 75 c0 41 1 75 3 75 50 4 181 20 184 23 9 9
1 161 -13 254 -6 39 5 63 17 40 5 -9 29 -68 53 -132z m342 111 c5 -23 -18 -90
-36 -101 -4 -3 -15 13 -24 35 -16 41 -16 41 11 65 35 31 41 31 49 1z m-442
-68 c4 -40 9 -96 12 -125 l6 -51 -78 -7 c-44 -3 -91 -8 -105 -11 -26 -5 -27
-4 -33 63 -4 37 -9 84 -11 103 l-5 35 92 31 c51 18 98 32 104 33 7 1 14 -27
18 -71z m-235 -138 c2 -70 10 -90 37 -90 23 0 24 -3 24 -75 l0 -75 -143 0
c-119 0 -148 -3 -176 -18 -95 -51 -89 -184 10 -234 27 -15 60 -18 172 -18
l137 0 0 -245 0 -245 -250 0 -250 0 2 421 3 421 90 27 c166 49 301 131 321
194 7 22 7 22 15 2 4 -11 8 -40 8 -65z m-479 -295 c0 -69 -2 -125 -4 -125 -8
0 -147 192 -143 197 9 8 121 53 135 53 9 0 12 -32 12 -125z m-190 3 c0 -24 9
-227 20 -453 11 -225 20 -422 20 -437 l0 -28 -98 0 -99 0 -6 108 c-3 59 -7
190 -7 291 0 101 -3 188 -6 193 -3 4 -2 74 2 154 l7 145 38 20 c54 27 59 25
54 -23 -3 -24 -9 -101 -15 -173 -6 -71 -18 -200 -26 -285 -22 -210 -21 -205
-4 -205 18 0 28 78 60 455 11 140 23 261 25 268 2 6 11 12 20 12 11 0 15 -11
15 -42z m1956 -11 c34 -40 34 -108 -1 -142 l-24 -25 -746 0 -747 0 -29 29
c-39 39 -41 97 -3 134 14 14 35 28 47 30 12 3 350 4 750 3 l729 -1 24 -28z
m-1837 -88 l71 -96 0 -255 0 -256 -34 -6 c-19 -4 -45 -15 -59 -26 -32 -25 -34
-20 -37 105 -1 55 -3 114 -5 130 -1 17 -5 102 -9 190 -4 88 -9 198 -12 245 -4
53 -2 81 4 75 5 -5 41 -53 81 -106z m-318 -574 l4 -240 -342 -3 c-189 -1 -343
-1 -343 1 0 15 271 573 281 579 8 3 97 33 199 65 l185 59 6 -111 c4 -60 8
-218 10 -350z m-463 306 c-18 -46 -222 -470 -225 -467 -4 3 36 428 40 433 5 4
154 41 170 42 10 1 17 -3 15 -8z m2596 -385 c48 -20 66 -51 66 -113 l0 -53
-960 0 -960 0 0 54 c0 63 24 101 73 115 18 5 399 10 890 10 712 1 863 -1 891
-13z m594 -226 c16 -15 22 -32 22 -65 0 -53 -22 -81 -72 -90 -18 -3 -821 -4
-1784 -3 -1671 3 -1753 4 -1772 21 -38 34 -35 114 5 145 13 9 389 12 1798 12
1779 0 1781 0 1803 -20z"/>
<path d="M3883 5500 c-15 -6 -21 -15 -17 -25 3 -8 7 -15 8 -15 0 0 17 5 36 10
50 15 120 -4 156 -41 32 -34 44 -36 44 -11 0 60 -148 114 -227 82z"/>
<path d="M3894 5351 c-59 -36 -112 -127 -114 -192 0 -41 31 -73 63 -65 63 15
147 131 147 201 0 37 -25 75 -48 75 -9 0 -31 -9 -48 -19z"/>
<path d="M4285 5286 c-17 -7 -36 -20 -44 -29 -20 -25 10 -33 43 -11 29 18 95
24 139 11 23 -6 27 -4 27 12 0 11 -9 21 -22 25 -38 10 -111 6 -143 -8z"/>
<path d="M4027 4994 c-3 -4 1 -20 9 -35 14 -28 13 -31 -11 -55 -31 -30 -27
-61 4 -44 48 25 63 78 35 118 -15 22 -26 27 -37 16z"/>
<path d="M3785 4828 c-66 -36 -78 -138 -16 -138 37 0 68 24 81 65 10 30 9 40
-4 60 -18 27 -31 30 -61 13z"/>
<path d="M4260 9075 c-160 -30 -340 -107 -452 -193 l-48 -36 0 -185 0 -184 78
74 c93 91 147 129 255 179 134 63 230 84 382 84 105 0 146 -4 210 -23 206 -58
358 -189 438 -379 61 -144 89 -300 112 -632 8 -124 22 -273 31 -333 73 -523
390 -827 864 -830 400 -1 749 204 1038 610 93 130 201 319 349 611 81 158 166
318 190 355 91 142 194 217 300 217 77 -1 131 -26 202 -98 99 -99 156 -241
241 -600 27 -114 105 -434 173 -712 69 -278 130 -530 137 -560 19 -81 44 -125
84 -144 93 -44 196 17 196 117 0 20 -57 268 -126 550 -70 281 -155 632 -190
779 -98 416 -162 582 -275 717 -202 240 -463 295 -707 149 -83 -50 -206 -171
-266 -262 -29 -44 -121 -216 -204 -381 -167 -332 -249 -474 -354 -614 -227
-302 -497 -461 -786 -462 -172 -1 -288 47 -396 162 -100 106 -163 234 -201
413 -8 39 -22 184 -30 321 -18 307 -30 408 -60 533 -94 389 -336 642 -704 739
-121 32 -360 41 -481 18z"/>
<path d="M6831 6022 c-19 -9 -44 -30 -55 -45 -21 -28 -21 -35 -24 -1023 l-2
-994 485 0 485 0 0 991 c0 977 0 992 -20 1024 -40 64 -47 65 -462 65 -335 0
-376 -2 -407 -18z"/>
<path d="M5473 5201 c-48 -12 -78 -35 -97 -74 -14 -31 -16 -96 -16 -601 l0
-566 485 0 485 0 0 573 c0 550 -1 573 -20 604 -40 67 -45 68 -445 70 -198 1
-375 -2 -392 -6z"/>
<path d="M8223 4911 c-79 -36 -78 -28 -81 -518 l-3 -433 486 0 485 0 0 436 c0
491 2 477 -75 514 -39 19 -63 20 -406 20 -336 0 -367 -2 -406 -19z"/>
</g>
</svg>
