<?xml version="1.0" standalone="no"?>
<!DOCTYPE svg PUBLIC "-//W3C//DTD SVG 20010904//EN"
 "http://www.w3.org/TR/2001/REC-SVG-20010904/DTD/svg10.dtd">
<svg version="1.0" xmlns="http://www.w3.org/2000/svg"
 width="1080.000000pt" height="1080.000000pt" viewBox="0 0 1080.000000 1080.000000"
 preserveAspectRatio="xMidYMid meet">

<g transform="translate(0.000000,1080.000000) scale(0.100000,-0.100000)"
fill="#4c6fbf" stroke="none">
<path d="M1751 10539 c-116 -23 -251 -120 -301 -218 -19 -39 -509 -1264 -954
-2386 -102 -258 -166 -433 -166 -454 0 -49 36 -117 73 -139 18 -11 211 -91
430 -178 218 -87 397 -162 397 -166 0 -4 -16 -30 -35 -57 -104 -145 -154 -359
-125 -538 39 -244 200 -479 397 -581 112 -58 211 -82 340 -82 410 0 694 230
783 635 9 44 21 79 26 78 5 -1 187 -72 404 -159 352 -140 402 -157 455 -158
68 -1 103 17 134 68 22 35 224 534 360 889 99 259 105 287 70 367 -34 80 -86
93 -314 76 -96 -7 -118 -5 -172 12 -162 51 -263 167 -294 335 -23 124 17 251
109 349 160 171 419 183 597 27 19 -17 58 -67 88 -113 57 -86 82 -109 134
-120 65 -15 162 55 206 148 14 30 115 276 224 548 188 469 198 496 198 560 0
63 -2 69 -35 104 -19 20 -55 45 -80 56 -148 65 -2725 1083 -2770 1094 -61 15
-113 16 -179 3z m1169 -759 c569 -226 1136 -451 1260 -501 124 -49 230 -93
237 -97 9 -6 -21 -92 -110 -317 -67 -170 -127 -310 -133 -312 -6 -2 -40 14
-75 35 -138 83 -299 132 -435 132 -233 0 -503 -154 -644 -368 -80 -120 -128
-306 -115 -437 42 -400 261 -649 643 -731 49 -10 81 -22 79 -28 -183 -462
-250 -626 -256 -626 -3 0 -204 79 -446 175 -428 170 -442 175 -513 175 -95 0
-138 -18 -158 -66 -13 -30 -15 -74 -12 -233 l3 -196 -31 -65 c-121 -255 -458
-317 -673 -124 -89 80 -149 236 -135 348 19 144 91 254 224 338 92 59 114 88
118 161 2 49 -1 69 -17 93 -24 39 -73 76 -126 96 -76 29 -870 342 -874 345 -3
2 1 20 8 41 46 127 995 2502 1011 2527 25 40 56 56 100 50 19 -2 501 -189
1070 -415z"/>
<path d="M6018 8930 c-36 -19 -68 -56 -82 -94 -3 -11 -6 -291 -6 -623 0 -331
-1 -603 -2 -603 -2 0 -46 9 -98 20 -138 29 -341 37 -457 16 -221 -38 -403
-151 -543 -338 -108 -143 -170 -296 -192 -473 -44 -363 171 -772 488 -926 140
-68 212 -82 419 -83 124 0 209 5 274 16 52 10 98 15 103 12 4 -3 8 -225 8
-494 l0 -489 -677 -3 c-676 -3 -678 -3 -719 -25 -46 -25 -67 -51 -84 -109 -17
-57 -1 -105 64 -190 100 -132 138 -234 138 -373 0 -169 -55 -303 -172 -422
-86 -87 -181 -140 -295 -164 -90 -19 -148 -19 -243 1 -221 45 -400 214 -458
431 -19 75 -19 212 1 288 21 82 68 172 121 233 75 86 91 150 55 228 -10 23
-36 54 -57 70 l-37 29 -776 0 c-427 0 -793 -4 -813 -8 -56 -12 -95 -50 -113
-110 -22 -74 -23 -3785 0 -3890 43 -203 221 -373 426 -406 89 -15 7538 -15
7629 -1 196 31 375 198 419 390 7 31 11 1276 11 3855 0 3271 -2 3818 -15 3864
-44 166 -161 293 -333 360 l-67 26 -1940 2 c-1905 2 -1941 2 -1977 -17z m3864
-340 c48 -14 96 -55 117 -100 14 -32 16 -202 19 -1822 l2 -1788 -500 0 c-275
0 -500 2 -500 4 0 3 9 42 21 88 29 119 37 356 15 461 -33 161 -101 289 -216
411 -141 149 -305 251 -480 298 -71 19 -109 23 -230 22 -128 -1 -156 -4 -235
-28 -260 -79 -483 -269 -600 -509 -70 -147 -80 -195 -79 -392 1 -148 4 -182
26 -262 14 -51 23 -95 20 -98 -3 -3 -227 -5 -498 -5 l-494 0 -2 688 -3 689
-27 35 c-34 45 -88 70 -148 70 -56 0 -79 -11 -144 -69 -54 -48 -164 -104 -241
-123 -64 -15 -206 -15 -270 0 -103 25 -195 78 -275 159 -87 87 -132 165 -160
277 -69 268 64 550 317 674 211 102 444 70 641 -89 71 -58 93 -65 161 -59 60
6 105 37 132 90 20 39 20 54 19 714 l-1 674 1788 0 c1199 0 1800 -4 1825 -10z
m-1639 -2785 c236 -42 425 -223 477 -457 19 -82 8 -238 -20 -313 -27 -71 -79
-157 -125 -205 -41 -43 -55 -77 -55 -136 0 -49 10 -76 44 -112 53 -60 19 -57
761 -57 l680 0 8 -60 c4 -33 6 -838 4 -1790 -2 -1347 -5 -1738 -15 -1767 -15
-45 -69 -93 -119 -107 -26 -8 -608 -11 -1820 -11 l-1783 0 0 496 c0 469 1 495
18 490 170 -54 439 -67 584 -28 213 58 398 199 535 409 63 97 95 166 126 271
31 109 31 350 -1 464 -42 153 -125 291 -252 419 -155 156 -308 238 -505 270
-107 17 -285 6 -405 -25 -52 -14 -98 -21 -103 -17 -4 4 -6 225 -5 492 l3 484
680 5 c740 5 707 3 762 62 64 69 56 163 -22 258 -123 149 -171 343 -130 519
21 87 85 206 145 269 88 93 215 161 333 181 76 13 113 12 200 -4z m-5061
-1290 c3 -3 -1 -36 -8 -73 -56 -286 -30 -552 73 -742 112 -206 332 -374 578
-442 114 -31 353 -31 470 0 184 50 390 184 501 325 67 86 102 153 139 267 25
75 28 105 33 256 3 128 0 195 -12 272 -9 57 -16 112 -16 122 0 20 10 20 479
20 264 0 486 -3 495 -6 14 -6 16 -72 15 -663 -1 -733 -4 -699 68 -773 66 -68
138 -62 245 21 135 102 239 142 378 143 104 1 173 -14 265 -57 161 -76 276
-214 319 -382 20 -78 20 -218 0 -297 -65 -251 -318 -446 -579 -446 -126 0
-271 57 -372 145 -29 25 -68 52 -87 60 -87 37 -171 3 -217 -87 -18 -35 -19
-68 -19 -713 l0 -675 -1807 2 c-1792 3 -1808 3 -1843 23 -22 13 -44 39 -60 70
l-25 50 -3 1780 c-1 979 0 1785 2 1792 4 10 107 13 494 13 269 0 491 -2 494
-5z"/>
</g>
</svg>
